<mxfile host="app.diagrams.net" modified="2024-03-19T04:23:12.285Z" agent="Mozilla/5.0" version="22.1.21">
  <diagram id="sequence-diagram" name="Sequence Diagram">
    <mxGraphModel dx="0" dy="0" grid="1" gridSize="10" guides="1" tooltips="1" connect="1" arrows="1" fold="1" page="1" pageScale="1" pageWidth="850" pageHeight="1100" math="0" shadow="0">
      <root>
        <mxCell id="0"/>
        <mxCell id="1" parent="0"/>

        <!-- Frame -->
        <mxCell id="frame" value="sd Phân quyền người dùng" style="shape=umlFrame;whiteSpace=wrap;html=1;width=160;height=30;" vertex="1" parent="1">
          <mxGeometry x="20" y="10" width="810" height="580" as="geometry"/>
        </mxCell>

        <!-- Objects -->
        <mxCell id="admin" value="Administrator" style="shape=umlActor;verticalLabelPosition=bottom;verticalAlign=top;html=1;" vertex="1" parent="1">
          <mxGeometry x="50" y="40" width="30" height="60" as="geometry"/>
        </mxCell>

        <mxCell id="userRolePage" value="Trang Quản lý&#xa;Phân quyền" style="rounded=0;whiteSpace=wrap;html=1;" vertex="1" parent="1">
          <mxGeometry x="250" y="50" width="100" height="40" as="geometry"/>
        </mxCell>

        <mxCell id="userRoleService" value="UserRole&#xa;Service" style="rounded=0;whiteSpace=wrap;html=1;" vertex="1" parent="1">
          <mxGeometry x="450" y="50" width="100" height="40" as="geometry"/>
        </mxCell>

        <mxCell id="database" value="Database" style="rounded=0;whiteSpace=wrap;html=1;" vertex="1" parent="1">
          <mxGeometry x="650" y="50" width="100" height="40" as="geometry"/>
        </mxCell>

        <!-- Lifelines -->
        <mxCell id="adminLine" value="" style="endArrow=none;dashed=1;html=1;" edge="1" parent="1">
          <mxGeometry width="50" height="50" relative="1" as="geometry">
            <mxPoint x="65" y="550" as="sourcePoint"/>
            <mxPoint x="65" y="120" as="targetPoint"/>
          </mxGeometry>
        </mxCell>

        <!-- Messages -->
        <mxCell id="msg1" value="1. Truy cập trang quản lý" style="endArrow=classic;html=1;" edge="1" parent="1">
          <mxGeometry relative="1" as="geometry">
            <mxPoint x="65" y="140" as="sourcePoint"/>
            <mxPoint x="300" y="140" as="targetPoint"/>
          </mxGeometry>
        </mxCell>

        <mxCell id="msg2" value="2. Lấy danh sách người dùng" style="endArrow=classic;html=1;" edge="1" parent="1">
          <mxGeometry relative="1" as="geometry">
            <mxPoint x="300" y="180" as="sourcePoint"/>
            <mxPoint x="500" y="180" as="targetPoint"/>
          </mxGeometry>
        </mxCell>

        <mxCell id="msg3" value="3. Query database" style="endArrow=classic;html=1;" edge="1" parent="1">
          <mxGeometry relative="1" as="geometry">
            <mxPoint x="500" y="220" as="sourcePoint"/>
            <mxPoint x="700" y="220" as="targetPoint"/>
          </mxGeometry>
        </mxCell>

        <mxCell id="msg4" value="4. Trả về danh sách" style="endArrow=classic;html=1;dashed=1;" edge="1" parent="1">
          <mxGeometry relative="1" as="geometry">
            <mxPoint x="700" y="260" as="sourcePoint"/>
            <mxPoint x="500" y="260" as="targetPoint"/>
          </mxGeometry>
        </mxCell>

        <mxCell id="msg5" value="5. Hiển thị danh sách" style="endArrow=classic;html=1;dashed=1;" edge="1" parent="1">
          <mxGeometry relative="1" as="geometry">
            <mxPoint x="500" y="300" as="sourcePoint"/>
            <mxPoint x="300" y="300" as="targetPoint"/>
          </mxGeometry>
        </mxCell>

        <mxCell id="msg6" value="6. Chọn người dùng và vai trò" style="endArrow=classic;html=1;" edge="1" parent="1">
          <mxGeometry relative="1" as="geometry">
            <mxPoint x="65" y="340" as="sourcePoint"/>
            <mxPoint x="300" y="340" as="targetPoint"/>
          </mxGeometry>
        </mxCell>

        <mxCell id="msg7" value="7. Cập nhật vai trò" style="endArrow=classic;html=1;" edge="1" parent="1">
          <mxGeometry relative="1" as="geometry">
            <mxPoint x="300" y="380" as="sourcePoint"/>
            <mxPoint x="500" y="380" as="targetPoint"/>
          </mxGeometry>
        </mxCell>

        <mxCell id="msg8" value="8. Lưu thay đổi" style="endArrow=classic;html=1;" edge="1" parent="1">
          <mxGeometry relative="1" as="geometry">
            <mxPoint x="500" y="420" as="sourcePoint"/>
            <mxPoint x="700" y="420" as="targetPoint"/>
          </mxGeometry>
        </mxCell>

        <mxCell id="msg9" value="9. Xác nhận" style="endArrow=classic;html=1;dashed=1;" edge="1" parent="1">
          <mxGeometry relative="1" as="geometry">
            <mxPoint x="700" y="460" as="sourcePoint"/>
            <mxPoint x="500" y="460" as="targetPoint"/>
          </mxGeometry>
        </mxCell>

        <mxCell id="msg10" value="10. Thông báo thành công" style="endArrow=classic;html=1;dashed=1;" edge="1" parent="1">
          <mxGeometry relative="1" as="geometry">
            <mxPoint x="500" y="500" as="sourcePoint"/>
            <mxPoint x="65" y="500" as="targetPoint"/>
          </mxGeometry>
        </mxCell>

      </root>
    </mxGraphModel>
  </diagram>
</mxfile>